<svg width="35" height="36" viewBox="0 0 35 36" fill="none" xmlns="http://www.w3.org/2000/svg">
<path fill-rule="evenodd" clip-rule="evenodd" d="M17.5 1.96857e-10C19.7981 -1.10288e-05 22.0737 0.463408 24.1969 1.3638C26.3202 2.26419 28.2493 3.58392 29.8744 5.24763C31.4994 6.91135 32.7885 8.88647 33.6679 11.0602C34.5474 13.234 35 15.5638 35 17.9166C35 27.8118 27.165 35.8334 17.5 35.8334C7.83505 35.8334 0 27.8118 0 17.9166C0 8.0216 7.83505 1.96857e-10 17.5 1.96857e-10ZM19.25 19.7084H15.75C11.4175 19.7084 7.69798 22.3948 6.09369 26.2296C8.63207 29.8737 12.795 32.25 17.5 32.25C22.205 32.25 26.3679 29.8737 28.9063 26.2293C27.3021 22.3948 23.5825 19.7084 19.25 19.7084ZM17.5 5.375C14.6005 5.375 12.25 7.78149 12.25 10.75C12.25 13.7185 14.6005 16.125 17.5 16.125C20.3995 16.125 22.75 13.7185 22.75 10.75C22.75 7.78149 20.3995 5.375 17.5 5.375Z" fill="white"/>
</svg>
